<?xml version="1.0"?>
<svg width="58" height="50" xmlns="http://www.w3.org/2000/svg" xmlns:svg="http://www.w3.org/2000/svg">
 <g class="layer">
  <title>Layer 1</title>
  <g id="svg_1">
   <path d="m14.368,0.802c0.692,-0.175 1.429,-0.185 2.125,-0.027c1.197,0.291 2.212,1.206 2.653,2.353c0.527,1.245 0.329,2.74 -0.449,3.835c-0.237,0.323 -0.568,0.558 -0.826,0.861c1.192,0.98 2.405,1.932 3.581,2.93c0.125,0.106 0.245,0.221 0.391,0.298c0.156,0.016 0.256,-0.139 0.367,-0.224c0.432,-0.37 0.818,-0.789 1.26,-1.147c0.407,-0.345 0.797,-0.708 1.177,-1.082c0.31,-0.309 0.676,-0.557 0.973,-0.879c0.104,-0.123 -0.047,-0.239 -0.127,-0.322c-0.827,-0.742 -1.243,-1.887 -1.156,-2.987c0.083,-1.068 0.579,-2.111 1.397,-2.811c0.709,-0.627 1.66,-0.956 2.604,-0.934c0.845,-0.021 1.696,0.242 2.368,0.759c0.943,0.716 1.497,1.88 1.562,3.053c0.069,1.203 -0.443,2.459 -1.426,3.179c0.14,0.222 0.356,0.374 0.554,0.54c1.114,0.959 2.179,1.978 3.328,2.896c0.408,-0.249 0.742,-0.593 1.107,-0.895c0.958,-0.809 1.976,-1.544 2.919,-2.371c-0.127,-0.145 -0.262,-0.283 -0.407,-0.409c-0.39,-0.337 -0.677,-0.781 -0.857,-1.261c-0.198,-0.462 -0.317,-0.961 -0.298,-1.466c-0.045,-0.918 0.293,-1.831 0.851,-2.551c0.714,-0.924 1.867,-1.493 3.038,-1.473c0.884,-0.031 1.773,0.245 2.476,0.783c0.936,0.709 1.536,1.854 1.558,3.03c0.058,0.947 -0.295,1.883 -0.856,2.635c-0.192,0.264 -0.441,0.481 -0.711,0.662c0.294,0.408 0.727,0.677 1.093,1.013c0.926,0.815 1.858,1.625 2.728,2.502c0.491,0.462 1.002,0.906 1.456,1.406c0.223,0.216 0.141,0.547 0.149,0.823c0.004,1.213 0.049,2.427 0.015,3.639c0.006,0.148 -0.067,0.276 -0.151,0.391c-0.394,-0.07 -0.669,-0.377 -0.975,-0.606c-0.969,-0.766 -1.923,-1.551 -2.902,-2.304c-0.336,-0.247 -0.666,-0.506 -1.039,-0.695c-0.027,0.338 -0.064,0.677 -0.025,1.016c0.024,0.171 -0.006,0.369 0.098,0.519c1.954,1.654 3.937,3.274 5.876,4.946c0.989,0.838 2.004,1.647 2.991,2.487c0.568,0.479 1.111,0.988 1.694,1.451c0.187,0.176 0.449,0.373 0.415,0.662c-0.001,0.126 -0.115,0.201 -0.208,0.262c-0.369,0.221 -0.804,0.28 -1.221,0.349c-1.929,0.285 -3.885,0.34 -5.809,0.658c-2.045,0.298 -4.088,0.751 -5.981,1.599c-0.393,0.19 -0.784,0.388 -1.151,0.624c-0.453,0.28 -0.924,0.551 -1.295,0.94c0.298,-0.059 0.582,-0.168 0.869,-0.264c2.009,-0.672 4.133,-1.035 6.254,-0.982c1.184,0.005 2.368,0.203 3.488,0.588c0.653,0.262 1.333,0.533 1.834,1.045c0.145,0.159 0.312,0.368 0.247,0.598c-0.1,0.243 -0.349,0.377 -0.584,0.46c-1.008,0.346 -2.08,0.404 -3.13,0.536c-2.604,0.408 -5.133,1.223 -7.538,2.296c-0.758,0.359 -1.53,0.708 -2.214,1.201c0.504,-0.071 0.98,-0.272 1.485,-0.34c1.914,-0.324 3.948,0.008 5.618,1.012c0.577,0.343 1.121,0.748 1.593,1.228c0.191,0.208 0.385,0.438 0.446,0.721c0.04,0.231 -0.165,0.415 -0.369,0.473c-0.682,0.216 -1.402,0.276 -2.112,0.339c-2.449,0.232 -4.906,0.606 -7.238,1.415c-2.168,0.753 -4.197,1.932 -5.875,3.504c-0.951,0.917 -1.778,1.961 -2.45,3.098c-0.412,0.69 -0.719,1.435 -1.05,2.165c-0.084,0.184 -0.176,0.365 -0.29,0.532c-0.245,-0.468 -0.399,-0.976 -0.638,-1.446c-1.092,-2.215 -2.677,-4.211 -4.694,-5.652c-1.123,-0.807 -2.338,-1.493 -3.633,-1.982c-2.096,-0.806 -4.318,-1.219 -6.539,-1.5c-0.84,-0.103 -1.688,-0.119 -2.525,-0.251c-0.469,-0.089 -0.963,-0.175 -1.349,-0.476c0.068,-0.456 0.371,-0.827 0.695,-1.137c0.756,-0.715 1.681,-1.234 2.651,-1.6c1.445,-0.494 3.013,-0.647 4.52,-0.369c0.458,0.069 0.897,0.247 1.363,0.271c-0.86,-0.547 -1.789,-0.973 -2.715,-1.393c-2.373,-1.054 -4.887,-1.797 -7.459,-2.166c-0.925,-0.12 -1.86,-0.219 -2.758,-0.487c-0.254,-0.085 -0.574,-0.223 -0.617,-0.522c0.009,-0.279 0.234,-0.484 0.422,-0.664c0.747,-0.636 1.696,-0.977 2.641,-1.188c0.627,-0.158 1.271,-0.233 1.915,-0.282c2.196,-0.136 4.42,0.155 6.506,0.855c0.394,0.108 0.777,0.264 1.184,0.319c-0.379,-0.447 -0.917,-0.707 -1.414,-0.996c-0.648,-0.349 -1.314,-0.663 -1.992,-0.949c-1.497,-0.544 -3.056,-0.903 -4.631,-1.128c-1.857,-0.312 -3.741,-0.405 -5.609,-0.632c-0.516,-0.071 -1.043,-0.127 -1.534,-0.311c-0.182,-0.078 -0.39,-0.165 -0.472,-0.359c-0.01,-0.306 0.311,-0.444 0.503,-0.623c0.767,-0.675 1.499,-1.391 2.316,-2.006c1.145,-0.901 2.192,-1.921 3.334,-2.826c0.381,-0.301 0.737,-0.632 1.103,-0.951c1.231,-1.005 2.43,-2.05 3.665,-3.049c0.084,-0.082 0.149,-0.186 0.164,-0.303c0.062,-0.447 0.09,-0.906 0.002,-1.351c-0.364,0.18 -0.682,0.434 -1.01,0.668c-1.149,0.858 -2.271,1.75 -3.406,2.626c-0.146,0.134 -0.333,0.203 -0.532,0.197c-0.058,-0.201 -0.095,-0.407 -0.104,-0.615c-0.067,-1.279 0.042,-2.558 0.001,-3.838c-0.016,-0.236 0.142,-0.427 0.303,-0.579c0.732,-0.688 1.444,-1.4 2.228,-2.031c0.911,-0.803 1.816,-1.615 2.739,-2.404c0.053,-0.062 0.21,-0.163 0.086,-0.236c-1.328,-1.013 -1.849,-2.93 -1.247,-4.484c0.402,-1.172 1.416,-2.113 2.619,-2.432m0.576,1.126c-0.7,0.116 -1.358,0.512 -1.745,1.112c-0.743,1.098 -0.588,2.738 0.408,3.632c0.664,0.61 1.632,0.793 2.502,0.638c1.213,-0.268 2.129,-1.45 2.109,-2.689c0.016,-1.027 -0.607,-2.019 -1.526,-2.47c-0.538,-0.258 -1.161,-0.346 -1.748,-0.223m12.879,-0.002c-0.795,0.148 -1.528,0.641 -1.928,1.348c-0.365,0.604 -0.41,1.356 -0.255,2.032c0.306,1.267 1.607,2.2 2.907,2.065c0.877,-0.07 1.69,-0.601 2.135,-1.355c0.338,-0.536 0.429,-1.196 0.345,-1.817c-0.116,-0.847 -0.677,-1.604 -1.419,-2.016c-0.543,-0.284 -1.184,-0.386 -1.785,-0.257m12.804,0.002c-0.744,0.139 -1.425,0.594 -1.821,1.242c-0.419,0.64 -0.498,1.458 -0.318,2.191c0.199,0.8 0.808,1.483 1.58,1.774c0.507,0.229 1.076,0.237 1.621,0.192c1.36,-0.228 2.362,-1.637 2.191,-2.995c-0.081,-0.954 -0.725,-1.821 -1.589,-2.219c-0.52,-0.225 -1.108,-0.306 -1.664,-0.185m-26.765,7.051c-0.947,0.764 -1.873,1.552 -2.802,2.336c-0.733,0.615 -1.515,1.191 -2.136,1.923c-0.056,0.596 -0.025,1.201 -0.018,1.801c0.338,-0.166 0.621,-0.418 0.919,-0.643c0.967,-0.764 1.906,-1.562 2.869,-2.333c0.368,-0.291 0.727,-0.597 1.13,-0.84c0.13,1.517 0.092,3.043 0.058,4.564c0.02,0.291 -0.124,0.564 -0.362,0.727c-0.773,0.567 -1.495,1.2 -2.239,1.806c-1.023,0.823 -2.059,1.631 -3.08,2.458c-0.553,0.453 -1.092,0.921 -1.656,1.361c-0.438,0.349 -0.886,0.69 -1.281,1.089c1.448,-0.236 2.899,-0.533 4.373,-0.518c0.29,0.008 0.603,-0.004 0.836,-0.203c0.48,-0.384 0.927,-0.808 1.407,-1.193c0.421,-0.355 0.818,-0.736 1.249,-1.079c0.775,-0.686 1.536,-1.39 2.343,-2.039c0.56,0.594 1.147,1.16 1.724,1.737c0.515,0.558 1.023,1.122 1.584,1.635c0.688,0.637 1.278,1.371 1.966,2.008c0.386,0.362 0.729,0.767 1.103,1.141c0.34,-0.226 0.608,-0.538 0.906,-0.813c1.528,-1.443 3.007,-2.937 4.547,-4.367c0.301,-0.316 0.585,-0.654 0.94,-0.912c0.09,-0.078 0.176,0.045 0.245,0.092c0.745,0.691 1.465,1.409 2.188,2.122c0.427,0.373 0.827,0.775 1.23,1.173c0.942,0.899 1.888,1.795 2.792,2.733c0.391,-0.315 0.701,-0.714 1.063,-1.059c0.369,-0.363 0.743,-0.721 1.088,-1.107c0.573,-0.635 1.199,-1.22 1.797,-1.832c0.845,-0.839 1.656,-1.71 2.489,-2.56c0.488,0.353 0.906,0.788 1.37,1.169c1.2,1.062 2.432,2.089 3.65,3.13c0.218,0.21 0.529,0.221 0.814,0.21c1.477,-0.043 2.937,0.224 4.375,0.529c-0.535,-0.536 -1.156,-0.975 -1.739,-1.456c-2.152,-1.722 -4.268,-3.489 -6.422,-5.209c-0.182,-0.152 -0.445,-0.292 -0.432,-0.567c-0.076,-1.582 -0.024,-3.167 0.021,-4.749c0.334,0.163 0.603,0.423 0.897,0.645c0.766,0.623 1.527,1.254 2.278,1.895c0.574,0.472 1.106,1.008 1.751,1.384c0.009,-0.526 0.082,-1.054 0.027,-1.579c-0.019,-0.228 -0.159,-0.419 -0.321,-0.569c-1.38,-1.247 -2.78,-2.471 -4.205,-3.665c-0.373,-0.276 -0.719,-0.616 -1.163,-0.773c-0.386,-0.036 -0.775,-0.003 -1.163,-0.015c-0.273,0.01 -0.566,-0.044 -0.817,0.09c-0.382,0.195 -0.701,0.486 -1.035,0.751c-0.773,0.621 -1.541,1.247 -2.315,1.867c-0.679,0.527 -1.323,1.105 -2.042,1.577c-1.519,-1.398 -3.072,-2.758 -4.587,-4.16c-0.139,-0.124 -0.334,-0.129 -0.51,-0.127c-0.889,0.005 -1.779,-0.001 -2.668,0.003c-0.356,-0.01 -0.556,0.322 -0.797,0.525c-1.419,1.245 -2.809,2.522 -4.241,3.752c-1.633,-1.328 -3.289,-2.628 -4.926,-3.951c-0.143,-0.113 -0.29,-0.229 -0.464,-0.288c-0.195,-0.06 -0.403,-0.037 -0.603,-0.044c-0.41,0.005 -0.824,-0.043 -1.232,0.018c-0.292,0.049 -0.546,0.216 -0.773,0.399m0.684,11.648c-0.801,0.675 -1.563,1.395 -2.382,2.048c0.525,0.081 1.056,0.11 1.584,0.145c0.911,0.089 1.819,0.219 2.707,0.445c1.163,0.255 2.249,0.759 3.38,1.117c-0.242,-0.269 -0.486,-0.536 -0.746,-0.787c-0.833,-0.812 -1.647,-1.643 -2.446,-2.487c-0.379,-0.401 -0.787,-0.776 -1.133,-1.208c-0.347,0.203 -0.655,0.469 -0.964,0.727m22.269,3.743c0.586,-0.177 1.143,-0.434 1.728,-0.614c1.193,-0.422 2.434,-0.71 3.69,-0.868c0.737,-0.097 1.482,-0.114 2.219,-0.212c-1.107,-0.936 -2.176,-1.926 -3.354,-2.771c-1.37,1.541 -2.9,2.934 -4.283,4.465m-10.96,-1.751c-1.12,1.073 -2.215,2.173 -3.326,3.254c1.482,1.01 2.832,2.217 3.967,3.609c0.666,0.79 1.191,1.686 1.792,2.525c0.137,-0.047 0.187,-0.207 0.272,-0.312c0.802,-1.345 1.788,-2.579 2.902,-3.679c0.802,-0.8 1.699,-1.491 2.617,-2.152c-1.38,-1.383 -2.809,-2.715 -4.199,-4.087c-0.52,-0.506 -1.006,-1.046 -1.552,-1.523c-0.859,0.75 -1.646,1.579 -2.473,2.365m-19.642,1.63c-0.303,0.048 -0.601,0.129 -0.878,0.262c0,0.034 0,0.103 0.001,0.138c0.286,0.072 0.582,0.082 0.873,0.122c1.271,0.125 2.54,0.271 3.802,0.459c1.032,0.191 2.063,0.4 3.062,0.722c2.353,0.675 4.617,1.852 6.281,3.678c0.393,0.481 0.808,0.955 1.086,1.515c-0.241,0.26 -0.506,0.495 -0.78,0.716c-0.696,-0.321 -1.361,-0.707 -2.075,-0.99c-1.017,-0.428 -2.076,-0.758 -3.157,-0.98c-1.523,-0.357 -3.091,-0.508 -4.654,-0.503c-0.534,0.016 -1.084,0.019 -1.595,0.191c-0.107,0.025 -0.172,0.11 -0.199,0.212c0.236,0.099 0.48,0.178 0.731,0.23c1.045,0.217 2.097,0.409 3.117,0.729c2.053,0.581 4.028,1.438 5.849,2.552c1.14,0.702 2.195,1.533 3.196,2.419c0.386,0.363 0.803,0.701 1.115,1.133c-0.282,0.269 -0.543,0.559 -0.833,0.819c-0.458,-0.214 -0.884,-0.489 -1.342,-0.703c-1.89,-0.958 -4.091,-1.495 -6.194,-1.021c-0.535,0.149 -1.097,0.288 -1.547,0.632c-0.141,0.097 -0.219,0.251 -0.292,0.401c0.542,0.192 1.123,0.215 1.688,0.295c2.374,0.253 4.72,0.843 6.899,1.826c1.958,0.882 3.761,2.102 5.322,3.576c0.97,0.934 1.819,1.983 2.606,3.072c0.222,-0.22 0.384,-0.489 0.573,-0.735c0.469,-0.621 0.969,-1.218 1.504,-1.784c1.72,-1.726 3.73,-3.183 5.958,-4.181c1.879,-0.827 3.88,-1.36 5.908,-1.66c0.859,-0.129 1.731,-0.173 2.578,-0.373c-0.056,-0.342 -0.379,-0.523 -0.658,-0.671c-0.936,-0.434 -1.98,-0.602 -3.004,-0.558c-1.307,0.031 -2.583,0.403 -3.783,0.901c-0.653,0.299 -1.276,0.656 -1.917,0.978c-0.288,-0.261 -0.552,-0.548 -0.828,-0.821c0.107,-0.137 0.215,-0.273 0.334,-0.399c1.763,-1.725 3.789,-3.191 6.02,-4.253c2.023,-0.982 4.191,-1.645 6.397,-2.066c0.445,-0.093 0.908,-0.154 1.311,-0.379c-0.14,-0.122 -0.304,-0.214 -0.489,-0.24c-0.719,-0.144 -1.458,-0.129 -2.187,-0.11c-1.245,0.053 -2.493,0.179 -3.708,0.468c-1.423,0.305 -2.821,0.753 -4.137,1.377c-0.414,0.189 -0.796,0.44 -1.216,0.619c-0.266,-0.232 -0.54,-0.456 -0.779,-0.716c0.342,-0.712 0.886,-1.296 1.43,-1.859c0.45,-0.441 0.926,-0.856 1.441,-1.221c2.248,-1.605 4.959,-2.395 7.654,-2.849c1.434,-0.215 2.88,-0.334 4.319,-0.508c0.123,-0.014 0.233,-0.077 0.341,-0.134c-0.343,-0.24 -0.766,-0.298 -1.168,-0.365c-1.854,-0.288 -3.739,-0.36 -5.61,-0.229c-1.436,0.115 -2.872,0.301 -4.268,0.668c-2.355,0.586 -4.638,1.567 -6.575,3.043c-0.753,0.56 -1.467,1.177 -2.083,1.886c-1.13,1.254 -2.071,2.683 -2.761,4.225c-0.186,0.466 -0.356,0.938 -0.571,1.393c-0.338,-0.491 -0.458,-1.091 -0.723,-1.619c-0.573,-1.326 -1.384,-2.54 -2.324,-3.634c-0.934,-1.101 -2.019,-2.076 -3.232,-2.861c-2.679,-1.735 -5.818,-2.658 -8.974,-2.995c-2.278,-0.269 -4.593,-0.219 -6.855,0.16m76.501,-15.583c0.593,-0.197 1.175,-0.432 1.782,-0.589c-0.147,0.656 -0.311,1.306 -0.445,1.965c-0.086,0.372 -0.149,0.749 -0.273,1.111c-1.503,0.473 -2.998,0.967 -4.479,1.506c-1.023,0.332 -2.021,0.743 -3.049,1.06c0.44,0.443 0.887,0.879 1.349,1.299c0.923,0.949 1.84,1.904 2.763,2.853c0.821,0.89 1.654,1.773 2.562,2.576c0.579,0.494 1.28,0.915 2.06,0.95c0.914,0.004 1.828,0 2.743,0.001c0.589,-0.005 1.18,0.022 1.767,-0.046c0.893,-0.097 1.795,-0.212 2.642,-0.526c0.503,-0.153 0.966,-0.404 1.441,-0.624c0.83,-0.413 1.638,-0.871 2.439,-1.339c-0.768,-0.292 -1.558,-0.516 -2.349,-0.735c-0.867,-0.184 -1.759,-0.456 -2.65,-0.28c-0.849,0.238 -1.341,1.04 -2.043,1.512c-0.225,0.029 -0.479,-0.113 -0.515,-0.351c-0.052,-0.397 0.074,-0.795 0.238,-1.153c0.525,-0.995 1.143,-1.997 2.099,-2.632c0.53,-0.391 1.218,-0.462 1.857,-0.423c0.676,0.072 1.339,0.24 1.989,0.437c1.51,0.402 2.98,0.961 4.522,1.242c0.894,0.201 1.814,0.175 2.723,0.24c-0.057,0.312 -0.251,0.571 -0.369,0.859c-0.109,0.257 -0.227,0.51 -0.353,0.758c-0.188,0.365 -0.316,0.759 -0.525,1.114c-0.824,-0.02 -1.646,0.11 -2.427,0.371c-0.015,0.378 0.113,0.774 0.414,1.017c0.524,0.445 1.25,0.506 1.908,0.553c1.461,0.012 2.924,0.004 4.385,0.004c0.34,-0.022 0.796,-0.027 0.973,-0.378c0.09,-0.553 -0.042,-1.13 0.132,-1.675c0.331,-1.11 1.136,-2.123 2.232,-2.547c0.676,-0.182 1.418,-0.22 2.09,0.003c0.904,0.347 1.604,1.119 1.964,2.007c0.336,0.778 0.563,1.61 0.61,2.459c0.093,0.91 0.016,1.904 -0.529,2.672c-0.292,0.375 -0.657,0.708 -1.094,0.904c-0.571,0.279 -1.227,0.318 -1.851,0.273c-0.675,-0.094 -1.305,-0.431 -1.795,-0.899c-0.323,-0.287 -0.553,-0.656 -0.843,-0.973c-0.31,0.592 -0.769,1.143 -1.399,1.404c-0.68,0.261 -1.423,0.224 -2.137,0.225c-0.821,-0.007 -1.643,0.018 -2.463,-0.025c-0.683,-0.048 -1.386,-0.114 -2.009,-0.419c-0.583,-0.264 -1.107,-0.684 -1.43,-1.244c-0.453,-0.726 -0.571,-1.602 -0.593,-2.443c-0.839,0.815 -1.78,1.519 -2.761,2.154c-1.264,0.801 -2.652,1.417 -4.114,1.747c-0.984,0.21 -1.994,0.223 -2.995,0.24c-0.735,0.003 -1.474,0.009 -2.204,-0.089c-0.583,-0.081 -1.108,-0.373 -1.597,-0.685c-0.588,-0.383 -1.049,-0.917 -1.554,-1.396c-0.339,-0.326 -0.655,-0.675 -0.962,-1.03c-0.343,-0.334 -0.656,-0.695 -0.971,-1.054c-0.091,1.022 -0.462,2.041 -1.177,2.793c-0.379,0.388 -0.801,0.778 -1.341,0.915c-0.879,0.311 -1.808,0.421 -2.73,0.523c-1.164,0.105 -2.327,0.244 -3.497,0.23c-1.306,-0.011 -2.62,0.049 -3.917,-0.141c-0.791,-0.127 -1.599,-0.248 -2.326,-0.601c-1.171,-0.508 -2.061,-1.625 -2.267,-2.887c-0.166,-0.994 -0.197,-2.043 0.155,-3.002c0.225,-0.582 0.518,-1.141 0.89,-1.643c0.177,-0.218 0.434,-0.457 0.74,-0.384c0.24,0.042 0.377,0.292 0.362,0.521c-0.029,0.57 -0.369,1.071 -0.395,1.641c-0.023,0.608 0.032,1.26 0.389,1.775c0.375,0.599 1.044,0.938 1.712,1.106c0.444,0.117 0.906,0.108 1.36,0.157c0.733,0.018 1.464,0.077 2.197,0.063c1.164,-0.001 2.33,0.04 3.492,-0.036c0.796,0.002 1.588,-0.056 2.381,-0.116c0.621,-0.058 1.251,-0.129 1.832,-0.37c0.238,-0.099 0.468,-0.271 0.553,-0.525c0.129,-0.382 -0.03,-0.784 -0.211,-1.121c-0.456,-0.774 -1.06,-1.445 -1.662,-2.106c-0.314,-0.373 -0.69,-0.685 -1.038,-1.025c-0.455,-0.419 -0.936,-0.814 -1.467,-1.132c0.212,-1.16 0.415,-2.322 0.669,-3.474c1.643,-0.607 3.247,-1.312 4.902,-1.884c1.159,-0.427 2.313,-0.864 3.488,-1.238m26.335,9.686c-0.288,0.092 -0.469,0.375 -0.523,0.66c-0.11,0.712 0.021,1.443 0.3,2.102c0.179,0.47 0.436,0.92 0.817,1.257c0.264,0.227 0.638,0.264 0.972,0.222c0.362,-0.073 0.568,-0.438 0.63,-0.776c0.069,-0.553 0.045,-1.13 -0.168,-1.652c-0.245,-0.595 -0.549,-1.193 -1.047,-1.615c-0.264,-0.235 -0.648,-0.287 -0.981,-0.198m-91.724,-6.99c1.127,0.703 2.145,1.566 3.204,2.365c0.463,0.355 0.897,0.749 1.388,1.064c1.413,-1.025 2.7,-2.217 4.14,-3.206c0.123,-0.087 0.26,-0.151 0.399,-0.208c0.018,1.585 0.002,3.169 0.005,4.754c0.032,0.327 -0.286,0.51 -0.487,0.71c-0.897,0.864 -1.762,1.761 -2.646,2.638c-0.482,0.467 -0.936,0.966 -1.459,1.388c-0.862,-0.799 -1.636,-1.686 -2.489,-2.494c-0.65,-0.63 -1.31,-1.251 -1.94,-1.902c-0.222,-0.219 -0.124,-0.552 -0.122,-0.827c0.009,-1.426 -0.004,-2.854 0.007,-4.282m1.195,3.941c0.01,0.25 -0.045,0.561 0.177,0.738c1.07,1.043 2.118,2.108 3.225,3.112c0.609,-0.526 1.149,-1.126 1.732,-1.681c0.472,-0.489 0.989,-0.932 1.465,-1.417c0.153,-0.135 0.145,-0.357 0.153,-0.544c0.001,-0.59 0.001,-1.182 -0.006,-1.772c-0.421,0.223 -0.772,0.548 -1.162,0.817c-0.73,0.537 -1.471,1.061 -2.186,1.617c-1.149,-0.773 -2.21,-1.667 -3.36,-2.437c-0.07,0.52 -0.024,1.046 -0.038,1.567m11.683,-3.941c0.631,0.356 1.192,0.819 1.767,1.256c0.943,0.718 1.852,1.48 2.815,2.173c1.236,-0.884 2.365,-1.906 3.587,-2.809c0.312,-0.215 0.605,-0.47 0.964,-0.605c0.006,1.56 -0.001,3.121 0.005,4.681c-0.011,0.126 0.023,0.279 -0.082,0.375c-1.378,1.408 -2.771,2.801 -4.179,4.178c-0.095,0.085 -0.181,0.19 -0.301,0.238c-0.323,-0.245 -0.569,-0.574 -0.866,-0.847c-1.121,-1.047 -2.172,-2.165 -3.28,-3.225c-0.197,-0.197 -0.466,-0.401 -0.435,-0.713c0.002,-1.567 -0.009,-3.134 0.005,-4.702m4.579,4.807c-1.134,-0.783 -2.202,-1.657 -3.335,-2.44c-0.071,0.431 -0.045,0.869 -0.05,1.303c0.004,0.288 -0.016,0.583 0.061,0.864c0.07,0.126 0.183,0.221 0.282,0.323c0.593,0.573 1.197,1.134 1.786,1.71c0.402,0.424 0.799,0.856 1.257,1.222c0.514,-0.421 0.952,-0.925 1.445,-1.37c0.577,-0.517 1.108,-1.082 1.656,-1.63c0.108,-0.125 0.266,-0.244 0.263,-0.426c0.023,-0.667 0.011,-1.335 -0.005,-2.002c-1.134,0.797 -2.219,1.66 -3.36,2.446l0,0z" fill="#9D2C49" id="svg_2"/>
   <path d="m64.077,32.837c0.229,-0.16 0.424,-0.364 0.664,-0.507c0.013,1.039 0.003,2.079 0.005,3.118c-0.022,0.313 -0.127,0.637 -0.335,0.877c-0.156,-0.853 -0.156,-1.725 -0.26,-2.584c-0.029,-0.301 -0.036,-0.604 -0.074,-0.904m8.459,-0.004c0.21,-0.159 0.414,-0.327 0.625,-0.486c0.01,0.858 -0.026,1.717 0.003,2.576c-0.002,0.178 0.089,0.387 0.283,0.421c0.263,0.088 0.54,0.035 0.806,-0.012c0.008,-0.293 0.058,-0.61 0.277,-0.824c0.213,-0.246 0.597,-0.236 0.866,-0.095c0.307,0.186 0.323,0.582 0.529,0.845c0.059,0.108 0.187,0.1 0.295,0.106c0.738,-0.029 1.55,0.081 2.192,-0.373c-0.341,-0.101 -0.669,-0.282 -1.032,-0.274c-0.233,0.003 -0.354,0.255 -0.577,0.297c-0.04,-0.133 -0.038,-0.275 0.044,-0.392c0.149,-0.256 0.332,-0.589 0.669,-0.594c0.475,-0.047 0.867,0.27 1.29,0.429c0.318,0.143 0.661,0.217 1.01,0.229c-0.134,0.222 -0.278,0.438 -0.44,0.64c-0.629,-0.021 -1.13,0.41 -1.686,0.632c-0.457,0.225 -0.977,0.22 -1.474,0.209c-0.218,-0.014 -0.371,-0.192 -0.475,-0.365c-0.117,0.271 -0.387,0.501 -0.7,0.423c-0.267,0.005 -0.37,-0.284 -0.59,-0.372c-0.189,0.36 -0.624,0.34 -0.971,0.319c-0.419,0.008 -0.779,-0.38 -0.791,-0.789c-0.032,-0.853 -0.08,-1.702 -0.153,-2.55m2.347,1.9c-0.042,0.29 -0.017,0.606 0.185,0.836c0.088,0.129 0.371,0.147 0.387,-0.047c0.023,-0.262 -0.055,-0.542 -0.225,-0.744c-0.084,-0.105 -0.234,-0.04 -0.347,-0.045m30.779,-1.752c0.109,-0.268 0.399,-0.514 0.704,-0.438c0.129,0.036 0.297,0.212 0.141,0.324c-0.186,-0.029 -0.373,-0.065 -0.558,-0.025c0.015,0.095 0.006,0.203 0.065,0.287c0.237,0.08 0.482,-0.007 0.718,-0.049c-0.027,0.103 0.021,0.258 -0.102,0.312c-0.347,0.12 -0.697,0.234 -1.038,0.373c0.001,-0.06 0.003,-0.18 0.003,-0.24c0.088,-0.038 0.176,-0.076 0.266,-0.113c-0.117,-0.109 -0.258,-0.256 -0.199,-0.431m-14.423,0.043c0.112,-0.163 0.251,-0.305 0.399,-0.435c0.127,0.146 0.333,0.26 0.387,0.451c-0.098,0.129 -0.216,0.244 -0.342,0.345c-0.195,-0.03 -0.291,-0.254 -0.444,-0.361m-28.741,0.692c0.124,-0.146 0.253,-0.288 0.385,-0.427c0.145,0.133 0.287,0.269 0.436,0.399c-0.134,0.143 -0.276,0.278 -0.414,0.417c-0.149,-0.116 -0.279,-0.252 -0.407,-0.389m4.686,0.078c0.111,-0.133 0.226,-0.262 0.346,-0.388c0.13,0.127 0.258,0.258 0.383,0.392c-0.121,0.119 -0.24,0.237 -0.36,0.358c-0.13,-0.115 -0.252,-0.238 -0.369,-0.362m0.805,-0.03c0.123,-0.115 0.246,-0.232 0.368,-0.349c0.129,0.125 0.255,0.253 0.379,0.385c-0.126,0.121 -0.253,0.241 -0.383,0.358c-0.123,-0.13 -0.247,-0.26 -0.364,-0.394m14.062,0.173c0.122,-0.172 0.269,-0.325 0.41,-0.482c0.148,0.494 0.221,1.006 0.327,1.509c0.036,0.153 0.101,0.368 0.288,0.383c0.331,0.029 0.665,0.007 0.996,-0.018c0.068,-0.244 -0.142,-0.394 -0.271,-0.564c-0.058,-0.064 -0.047,-0.159 0.01,-0.219c0.112,-0.165 0.236,-0.323 0.359,-0.48c0.296,0.253 0.381,0.668 0.367,1.041c-0.012,0.372 -0.176,0.766 -0.501,0.967c-0.279,0.139 -0.604,0.097 -0.905,0.095c-0.375,-0.002 -0.585,-0.375 -0.702,-0.683c-0.088,0.113 -0.17,0.232 -0.242,0.356c-0.39,-0.015 -0.822,0.011 -1.147,-0.247c-0.027,-0.253 0.001,-0.52 0.148,-0.736c0.222,-0.312 0.576,-0.486 0.925,-0.619c-0.026,-0.1 -0.062,-0.2 -0.062,-0.303m-0.572,1.105c0.272,0.151 0.586,0.157 0.889,0.146c-0.042,-0.19 -0.097,-0.377 -0.149,-0.565c-0.266,0.1 -0.527,0.225 -0.74,0.419m13.97,-1.103c0.138,-0.166 0.275,-0.334 0.431,-0.484c0.126,0.447 0.19,0.909 0.278,1.364c0.04,0.171 0.07,0.369 0.214,0.489c0.258,0.107 0.543,0.079 0.817,0.084c0.181,-0.043 0.419,-0.076 0.462,-0.297c0.071,-0.144 0.078,-0.518 0.321,-0.371c0.123,0.182 0.088,0.46 0.277,0.607c0.149,0.027 0.308,0.029 0.458,-0.002c0.227,-0.154 0.168,-0.49 0.369,-0.67c0.041,0.022 0.123,0.065 0.164,0.087c0.049,0.2 0.043,0.458 0.237,0.583c0.151,0.03 0.307,0.016 0.462,0.014c0.135,-0.174 0.172,-0.393 0.247,-0.595c0.051,-0.098 0.151,-0.066 0.23,-0.021c0.078,0.114 0.082,0.258 0.099,0.392c0.189,0.355 0.659,0.242 0.991,0.274c0.149,-0.047 0.352,-0.036 0.438,-0.195c0.084,-0.172 0.121,-0.364 0.215,-0.532c0.045,0.014 0.134,0.043 0.178,0.058c0.053,0.212 0.108,0.429 0.233,0.614c0.2,-0.008 0.473,0.084 0.598,-0.129c0.083,-0.179 0.112,-0.381 0.223,-0.547c0.044,0.018 0.132,0.053 0.176,0.071c0.053,0.199 0.105,0.397 0.175,0.591c0.14,0.036 0.283,0.062 0.43,0.073c0.075,-0.03 0.151,-0.058 0.228,-0.084c0.095,-0.247 -0.117,-0.426 -0.221,-0.623c0.121,-0.153 0.179,-0.438 0.39,-0.471c0.343,0.49 0.353,1.2 -0.004,1.686c-0.145,0.225 -0.429,0.297 -0.68,0.234c-0.198,-0.029 -0.286,-0.222 -0.416,-0.347c-0.167,0.063 -0.226,0.277 -0.403,0.334c-0.326,0.12 -0.658,-0.073 -0.818,-0.358c-0.306,0.477 -0.945,0.429 -1.435,0.378c-0.23,-0.029 -0.376,-0.219 -0.518,-0.381c-0.138,0.224 -0.37,0.438 -0.653,0.389c-0.249,0.004 -0.402,-0.214 -0.546,-0.382c-0.145,0.197 -0.344,0.422 -0.616,0.382c-0.263,0.01 -0.439,-0.199 -0.597,-0.377c-0.263,0.465 -0.87,0.395 -1.323,0.39c-0.401,0.008 -0.612,-0.392 -0.737,-0.714c-0.075,0.125 -0.147,0.252 -0.217,0.379c-0.366,-0.015 -0.78,0.028 -1.091,-0.2c-0.183,-0.157 -0.08,-0.412 -0.01,-0.598c0.168,-0.434 0.619,-0.648 1.027,-0.803c-0.028,-0.095 -0.056,-0.194 -0.083,-0.292m-0.555,1.114c0.273,0.134 0.58,0.148 0.879,0.137c-0.047,-0.189 -0.099,-0.376 -0.149,-0.564c-0.256,0.116 -0.535,0.213 -0.73,0.427m-4.369,-0.854c0.279,-0.292 0.74,-0.177 1.062,-0.021c0.504,0.253 1.032,0.482 1.604,0.504c-0.11,0.182 -0.216,0.367 -0.346,0.535c-0.088,0.124 -0.253,0.11 -0.384,0.137c-0.479,0.082 -0.88,0.375 -1.315,0.57c-0.46,0.247 -0.997,0.246 -1.505,0.251c-0.319,0.007 -0.591,-0.195 -0.782,-0.433c-0.162,0.203 -0.373,0.396 -0.645,0.419c-0.33,0.023 -0.666,0.02 -0.99,-0.052c0.021,0.542 -0.219,1.073 -0.599,1.451c-0.123,0.135 -0.313,0.101 -0.474,0.103c-0.332,0.001 -0.66,-0.063 -0.975,-0.162c0.543,-0.283 1.133,-0.536 1.533,-1.02c0.097,-0.134 0.202,-0.316 0.111,-0.479c-0.105,-0.251 -0.328,-0.421 -0.51,-0.612c0.115,-0.228 0.227,-0.458 0.349,-0.682c0.175,0.195 0.325,0.428 0.561,0.559c0.38,0.173 0.823,0.148 1.212,0.016c0.253,-0.111 0.203,-0.445 0.352,-0.638c0.062,-0.001 0.123,0.003 0.186,0.015c0.042,0.247 0.072,0.534 0.309,0.677c0.462,0.051 0.927,0.008 1.391,0.005c0.397,0.002 0.773,-0.153 1.127,-0.321c-0.328,-0.153 -0.679,-0.324 -1.048,-0.301c-0.205,0.069 -0.373,0.217 -0.577,0.287c-0.065,-0.317 0.156,-0.587 0.353,-0.808m-19.688,0.491c0.079,-0.245 0.28,-0.438 0.449,-0.628c0.337,0.376 0.398,0.923 0.281,1.398c-0.102,0.341 -0.373,0.684 -0.753,0.705c-0.267,0.009 -0.556,0.047 -0.801,-0.082c-0.178,-0.091 -0.281,-0.269 -0.412,-0.411c-0.311,0.182 -0.621,0.382 -0.98,0.454c-0.454,0.089 -0.921,0.099 -1.383,0.085c-0.34,-0.04 -0.71,-0.093 -0.96,-0.352c-0.325,-0.28 -0.364,-0.762 -0.256,-1.152c0.058,-0.211 0.177,-0.462 0.436,-0.447c0.021,0.306 -0.202,0.687 0.081,0.927c0.337,0.251 0.786,0.24 1.186,0.267c0.54,-0.04 1.113,-0.062 1.595,-0.337c0.23,-0.142 0.408,-0.349 0.621,-0.513c0.119,0.012 0.103,0.137 0.083,0.225c-0.038,0.141 -0.084,0.282 -0.094,0.429c0.392,0.176 0.838,0.09 1.254,0.066c0.035,-0.271 -0.215,-0.432 -0.347,-0.634m34.863,0.096c0.111,-0.191 0.264,-0.428 0.518,-0.412c0.16,-0.02 0.331,0.02 0.444,0.143c0.227,0.24 0.327,0.564 0.408,0.877c1.233,-0.03 2.47,0.052 3.7,-0.054c-0.005,-0.279 0.045,-0.578 0.245,-0.789c0.237,-0.301 0.744,-0.324 1.017,-0.062c0.263,0.297 0.372,0.707 0.343,1.099c0.007,0.196 -0.108,0.369 -0.24,0.502c-0.171,0.16 -0.427,0.158 -0.643,0.124c-0.213,-0.051 -0.348,-0.232 -0.479,-0.39c-0.13,0.149 -0.273,0.313 -0.484,0.331c-0.568,0.058 -1.138,-0.001 -1.706,0.003c-0.591,0 -1.182,0.001 -1.773,-0.001c-0.012,0.558 -0.253,1.141 -0.693,1.494c-0.444,0.048 -0.893,-0.017 -1.317,-0.148c0.556,-0.254 1.118,-0.548 1.512,-1.029c0.066,-0.089 0.105,-0.195 0.154,-0.295c-0.396,-0.041 -0.949,0.101 -1.191,-0.313c-0.099,-0.364 -0.008,-0.761 0.185,-1.08m5.709,-0.053c-0.069,0.301 0.019,0.627 0.214,0.864c0.101,0.123 0.377,0.086 0.374,-0.096c0.016,-0.282 -0.09,-0.576 -0.293,-0.773c-0.1,-0.008 -0.198,-0.007 -0.295,0.005m-5.568,0.492c0.03,0.06 0.062,0.121 0.095,0.182c0.215,0.021 0.432,0.021 0.648,0c-0.094,-0.2 -0.257,-0.422 -0.503,-0.406c-0.135,-0.014 -0.178,0.137 -0.24,0.224m-42.81,-0.624c0.449,0.361 0.669,0.957 0.623,1.525c-0.022,0.55 -0.334,1.038 -0.709,1.421c-0.46,0.011 -0.941,0.038 -1.367,-0.166c0.533,-0.195 1.037,-0.485 1.432,-0.897c0.153,-0.162 0.301,-0.394 0.206,-0.622c-0.114,-0.229 -0.322,-0.388 -0.49,-0.574c0.083,-0.237 0.189,-0.465 0.305,-0.687m7.558,2.472c0.12,-0.132 0.21,-0.325 0.389,-0.382c0.102,0.084 0.191,0.182 0.286,0.275c0.055,0.021 0.109,0.045 0.164,0.071c0.105,-0.123 0.211,-0.246 0.339,-0.346c0.15,0.063 0.256,0.203 0.34,0.338c-0.038,0.178 -0.229,0.265 -0.34,0.395c-0.133,-0.146 -0.261,-0.302 -0.441,-0.39c-0.114,0.142 -0.244,0.27 -0.377,0.392c-0.119,-0.12 -0.239,-0.238 -0.36,-0.353m12.916,0.002c0.116,-0.136 0.201,-0.332 0.383,-0.389c0.122,0.114 0.279,0.223 0.331,0.39c-0.108,0.126 -0.234,0.234 -0.353,0.348c-0.119,-0.118 -0.238,-0.236 -0.361,-0.349m0.813,-0.037c0.13,-0.103 0.223,-0.283 0.383,-0.336c0.144,0.07 0.284,0.216 0.334,0.374c-0.103,0.127 -0.23,0.232 -0.347,0.345c-0.124,-0.128 -0.248,-0.256 -0.37,-0.383m3.602,-0.002c0.12,-0.119 0.239,-0.24 0.36,-0.36c0.112,0.129 0.286,0.227 0.331,0.401c-0.106,0.125 -0.232,0.231 -0.35,0.344c-0.12,-0.124 -0.235,-0.251 -0.341,-0.385m0.813,0.01c0.119,-0.128 0.238,-0.256 0.372,-0.369c0.103,0.133 0.29,0.229 0.322,0.403c-0.105,0.125 -0.232,0.229 -0.347,0.342c-0.128,-0.115 -0.245,-0.24 -0.347,-0.376m-23.235,5.042c0.216,-0.158 0.416,-0.338 0.631,-0.499c0.025,0.851 -0.002,1.704 0.012,2.555c0,0.171 0.053,0.383 0.242,0.435c0.24,0.042 0.488,0.013 0.73,0.058c0.04,-0.012 0.12,-0.037 0.16,-0.049c0.016,-0.834 -0.077,-1.668 -0.282,-2.477c0.201,-0.162 0.381,-0.347 0.586,-0.503c0.101,0.297 0.212,0.591 0.321,0.886c-0.054,-0.005 -0.162,-0.014 -0.217,-0.019c0.04,0.584 0.028,1.17 -0.045,1.75c0.325,-0.308 0.665,-0.617 1.08,-0.799c0.24,-0.103 0.553,-0.127 0.763,0.055c0.179,0.141 0.278,0.369 0.273,0.596c-0.023,0.477 -0.339,0.926 -0.784,1.105c-0.649,0.295 -1.377,0.227 -2.069,0.247c-0.271,-0.004 -0.56,0.014 -0.808,-0.114c-0.272,-0.147 -0.43,-0.452 -0.44,-0.756c-0.018,-0.827 -0.07,-1.651 -0.153,-2.471m2.206,2.507c0.39,0.021 0.784,0.02 1.173,-0.023c0.136,-0.032 0.311,-0.067 0.366,-0.216c-0.016,-0.076 -0.034,-0.151 -0.054,-0.225c-0.184,-0.077 -0.382,-0.161 -0.584,-0.116c-0.36,0.077 -0.647,0.328 -0.901,0.58m30.792,-2.511c0.221,-0.155 0.418,-0.34 0.638,-0.496c0.021,0.851 0.001,1.703 0.01,2.554c0.001,0.122 0.041,0.239 0.069,0.358c0.322,0.172 0.696,0.086 1.045,0.1c0.2,-0.017 0.456,0.034 0.606,-0.132c0.044,-0.198 -0.11,-0.354 -0.214,-0.501c-0.211,-0.278 -0.473,-0.515 -0.762,-0.709c0.047,-0.262 0.11,-0.522 0.153,-0.786c0.717,-0.265 1.425,-0.555 2.153,-0.789c-0.05,0.234 -0.082,0.471 -0.142,0.703c-0.529,0.158 -1.041,0.363 -1.57,0.52c0.232,0.271 0.52,0.507 0.652,0.849c0.202,0.427 0.166,1.002 -0.188,1.339c-0.401,0.318 -0.943,0.336 -1.432,0.325c-0.306,-0.001 -0.641,-0.151 -0.757,-0.45c-0.139,-0.349 -0.092,-0.732 -0.116,-1.097c-0.02,-0.599 -0.092,-1.193 -0.145,-1.788m-12.942,-0.066c0.18,-0.134 0.352,-0.279 0.54,-0.403c0.029,0.867 -0.001,1.735 0.013,2.602c-0.009,0.179 0.123,0.366 0.312,0.375c0.295,0.02 0.603,0.039 0.891,-0.036c0.265,-0.099 0.321,-0.402 0.345,-0.65c0.062,-0.01 0.127,-0.018 0.192,-0.022c0.152,0.172 0.083,0.466 0.275,0.616c0.18,0.132 0.419,0.098 0.63,0.11c0.274,-0.011 0.575,0.025 0.82,-0.125c0.161,-0.156 0.184,-0.397 0.262,-0.597c0.059,-0.001 0.12,-0.001 0.182,-0.001c0.08,0.245 0.088,0.588 0.373,0.693c0.334,0.042 0.674,0.028 1.01,0.01c0.021,-0.258 0.044,-0.535 0.212,-0.746c0.188,-0.308 0.637,-0.377 0.936,-0.2c0.274,0.191 0.406,0.525 0.463,0.843c0.06,0.32 -0.025,0.696 -0.303,0.893c-0.209,0.127 -0.486,0.128 -0.702,0.023c-0.148,-0.08 -0.25,-0.217 -0.362,-0.337c-0.402,0.562 -1.331,0.436 -1.721,-0.079c-0.286,0.471 -0.894,0.469 -1.376,0.42c-0.302,-0.02 -0.573,-0.188 -0.758,-0.421c-0.183,0.342 -0.602,0.429 -0.958,0.434c-0.312,0.002 -0.666,0.002 -0.91,-0.219c-0.257,-0.271 -0.292,-0.662 -0.329,-1.015c-0.218,0.412 -0.378,0.884 -0.74,1.196c-0.387,0.165 -0.821,0.073 -1.227,0.138c-0.064,0.005 -0.191,0.014 -0.255,0.018c0.002,-0.025 0.007,-0.074 0.009,-0.099c0.46,-0.212 0.916,-0.449 1.315,-0.763c0.105,-0.09 0.272,-0.231 0.166,-0.381c-0.291,-0.449 -0.658,-0.869 -1.117,-1.15c-0.012,0.061 -0.035,0.182 -0.047,0.242c-0.205,-0.215 -0.44,-0.419 -0.569,-0.69c-0.068,-0.249 0.049,-0.501 0.07,-0.749c0.488,0.297 0.914,0.688 1.308,1.1c0.272,0.332 0.554,0.68 0.646,1.112c0.177,-0.164 0.252,-0.399 0.3,-0.628c0.099,-0.499 0.115,-1.008 0.104,-1.514m6.454,2.02c0.01,0.179 0.04,0.358 0.075,0.534c0.07,0.112 0.121,0.247 0.239,0.321c0.097,0.014 0.195,-0.016 0.294,-0.029c0.023,-0.31 -0.023,-0.664 -0.266,-0.882c-0.112,-0.089 -0.243,-0.002 -0.342,0.056m18.357,-1.569c0.732,-0.24 1.435,-0.564 2.174,-0.784c-0.073,0.225 -0.103,0.461 -0.142,0.694c-0.536,0.156 -1.049,0.379 -1.587,0.528c0.356,0.338 0.678,0.738 0.775,1.232c0,0.117 0.001,0.235 0.002,0.353c-0.086,0.421 -0.408,0.792 -0.838,0.877c-0.753,0.109 -1.513,0.012 -2.269,0.029c-0.541,-0.001 -1.082,0.003 -1.621,-0.002c-0.016,0.574 -0.273,1.122 -0.691,1.514c-0.354,0.012 -0.706,-0.017 -1.054,-0.079c-0.089,-0.031 -0.177,-0.06 -0.263,-0.089c0.612,-0.343 1.38,-0.632 1.657,-1.336c-0.337,-0.024 -0.701,0.026 -1.01,-0.133c-0.262,-0.153 -0.242,-0.499 -0.182,-0.755c0.088,-0.316 0.199,-0.679 0.506,-0.851c0.192,-0.084 0.449,-0.088 0.609,0.067c0.247,0.216 0.367,0.545 0.403,0.864c0.386,0.044 0.779,0.005 1.169,0.034c0.389,0.01 0.779,0.008 1.169,0.003c0.362,-0.042 0.727,-0.014 1.09,-0.032c0.314,-0.017 0.643,0.034 0.94,-0.098c0.028,-0.279 -0.177,-0.489 -0.345,-0.683c-0.187,-0.214 -0.398,-0.408 -0.639,-0.559c0.042,-0.267 0.094,-0.53 0.147,-0.794m-4.594,2.183c0.196,-0.001 0.393,0.001 0.591,-0.007c-0.049,-0.249 -0.301,-0.458 -0.561,-0.393c-0.175,0.076 -0.133,0.282 -0.03,0.4m-26.793,-1.471c0.146,-0.159 0.286,-0.323 0.432,-0.482c0.129,0.475 0.21,0.96 0.306,1.443c0.041,0.16 0.077,0.364 0.25,0.434c0.138,0.036 0.283,0.04 0.426,0.058c0.215,-0.069 0.485,0.028 0.663,-0.138c-0.02,-0.237 -0.244,-0.375 -0.362,-0.562c0.071,-0.222 0.26,-0.386 0.38,-0.584c0.029,-0.001 0.087,-0.003 0.116,-0.003c0.285,0.363 0.322,0.851 0.251,1.292c-0.071,0.329 -0.292,0.655 -0.635,0.736c-0.288,0.059 -0.592,0.068 -0.88,0.011c-0.296,-0.106 -0.458,-0.409 -0.553,-0.689c-0.075,0.127 -0.144,0.258 -0.233,0.376c-0.346,0.018 -0.719,0.016 -1.03,-0.154c-0.234,-0.116 -0.143,-0.42 -0.078,-0.614c0.156,-0.457 0.642,-0.647 1.043,-0.837c-0.035,-0.096 -0.066,-0.192 -0.096,-0.287m-0.476,1.034c-0.003,0.025 -0.009,0.075 -0.012,0.101c0.262,0.118 0.562,0.133 0.841,0.073c-0.071,-0.167 -0.124,-0.342 -0.159,-0.52c-0.236,0.086 -0.47,0.192 -0.67,0.346m8.335,-1.223c0.123,-0.107 0.245,-0.216 0.366,-0.327c0.127,0.115 0.251,0.233 0.375,0.352c-0.107,0.126 -0.205,0.262 -0.34,0.36c-0.195,-0.03 -0.304,-0.233 -0.401,-0.385m0.809,0.013c0.128,-0.113 0.253,-0.229 0.379,-0.344c0.123,0.117 0.245,0.236 0.369,0.354c-0.133,0.125 -0.264,0.252 -0.395,0.378c-0.127,-0.12 -0.251,-0.246 -0.353,-0.388m15.767,-0.311c0.493,0.244 0.873,0.679 1.114,1.167c0.101,0.316 0.148,0.682 -0.019,0.985c-0.175,0.36 -0.597,0.487 -0.963,0.543c-0.308,0.033 -0.673,0.037 -0.908,-0.197c-0.245,-0.307 -0.235,-0.786 0.006,-1.094c0.04,0.023 0.121,0.068 0.162,0.091c0.013,0.174 0.045,0.399 0.255,0.434c0.388,0.079 0.799,0.021 1.171,-0.112c0.02,-0.297 -0.208,-0.512 -0.417,-0.685c-0.18,-0.153 -0.388,-0.268 -0.598,-0.375c0.038,-0.259 0.114,-0.51 0.197,-0.757m-40.389,0.946c0.131,-0.142 0.255,-0.299 0.427,-0.397c0.125,0.127 0.253,0.252 0.382,0.376c-0.124,0.156 -0.264,0.298 -0.408,0.436c-0.127,-0.145 -0.262,-0.283 -0.401,-0.415m33.372,-0.402c0.163,0.116 0.306,0.258 0.44,0.408c-0.143,0.128 -0.282,0.261 -0.416,0.399c-0.132,-0.131 -0.269,-0.255 -0.386,-0.397c0.103,-0.153 0.238,-0.278 0.362,-0.41m-20.977,0.698c0.105,-0.163 0.204,-0.33 0.32,-0.486c0.174,0.053 0.212,0.261 0.274,0.41c0.109,0.422 0.083,0.91 -0.186,1.27c-0.123,0.184 -0.343,0.299 -0.566,0.271c-0.258,0.018 -0.408,-0.212 -0.562,-0.377c-0.164,0.169 -0.33,0.414 -0.599,0.375c-0.269,0.016 -0.461,-0.182 -0.612,-0.375c-0.342,0.499 -1.035,0.428 -1.553,0.322c-0.027,0.597 -0.245,1.212 -0.75,1.567c-0.338,0.001 -0.677,-0.005 -1.009,-0.082l-0.044,-0.029c-0.059,-0.012 -0.178,-0.035 -0.238,-0.047c0.408,-0.267 0.886,-0.426 1.251,-0.762c0.194,-0.176 0.438,-0.396 0.407,-0.683c-0.101,-0.277 -0.328,-0.48 -0.536,-0.678c0.119,-0.225 0.232,-0.454 0.338,-0.686c0.173,0.189 0.318,0.412 0.538,0.552c0.183,0.123 0.413,0.1 0.621,0.144c0.212,-0.029 0.466,0.005 0.64,-0.145c0.119,-0.158 0.134,-0.364 0.225,-0.536c0.064,-0.061 0.128,-0.06 0.193,0.003c0.093,0.194 0.095,0.434 0.249,0.597c0.203,0.062 0.518,0.088 0.615,-0.154c0.095,-0.162 0.057,-0.438 0.271,-0.499c0.257,0.136 0.104,0.547 0.371,0.683c0.174,0.036 0.355,0.01 0.531,-0.005c0.025,-0.044 0.073,-0.132 0.097,-0.175c-0.078,-0.169 -0.18,-0.324 -0.286,-0.475m-11.293,0.757c0.099,-0.247 0.202,-0.495 0.364,-0.709c0.402,0.551 0.702,1.248 0.549,1.941c-0.077,0.452 -0.42,0.838 -0.857,0.976c-0.434,0.103 -0.883,0.121 -1.327,0.089c-0.416,-0.042 -0.801,-0.338 -0.921,-0.743c-0.105,-0.289 -0.046,-0.6 0.02,-0.89c0.084,-0.24 0.138,-0.508 0.319,-0.7c0.069,-0.01 0.14,-0.016 0.212,-0.018c0.036,0.376 -0.235,0.711 -0.141,1.092c0.034,0.319 0.373,0.469 0.658,0.494c0.524,0.038 1.099,0.049 1.559,-0.243c0.172,-0.092 0.139,-0.311 0.112,-0.471c-0.111,-0.315 -0.335,-0.57 -0.547,-0.818m33.317,-0.667c0.022,0.004 0.066,0.013 0.088,0.017c0.426,0.572 0.649,1.328 0.464,2.03c-0.092,0.407 -0.44,0.719 -0.833,0.829c-0.419,0.112 -0.858,0.108 -1.286,0.09c-0.543,-0.034 -1.005,-0.524 -1.007,-1.067c-0.005,-0.455 0.179,-0.888 0.385,-1.284c0.077,0.008 0.163,-0.008 0.234,0.036c0.033,0.292 -0.166,0.543 -0.179,0.831c-0.013,0.216 0.068,0.456 0.26,0.575c0.253,0.161 0.566,0.155 0.856,0.158c0.392,0.004 0.812,-0.043 1.142,-0.273c0.195,-0.124 0.153,-0.387 0.062,-0.562c-0.132,-0.264 -0.304,-0.504 -0.505,-0.718c0.094,-0.226 0.205,-0.445 0.319,-0.662m-16.904,2.3c0.125,-0.143 0.252,-0.287 0.408,-0.398c0.151,0.119 0.277,0.266 0.41,0.406c-0.142,0.133 -0.28,0.269 -0.416,0.406c-0.143,-0.129 -0.276,-0.27 -0.402,-0.414m8.74,-0.024c0.137,-0.118 0.233,-0.304 0.41,-0.368c0.151,0.117 0.276,0.262 0.412,0.397c-0.147,0.134 -0.289,0.274 -0.43,0.414c-0.134,-0.147 -0.269,-0.291 -0.392,-0.443" fill="#231F20" id="svg_3"/>
  </g>
 </g>

</svg>